<svg id="visual" viewBox="0 0 900 600" width="900" height="600" xmlns="http://www.w3.org/2000/svg" xmlns:xlink="http://www.w3.org/1999/xlink" version="1.1"><rect x="0" y="0" width="900" height="600" fill="#002233"></rect><path d="M0 400L21.5 403.7C43 407.3 86 414.7 128.8 413.7C171.7 412.7 214.3 403.3 257.2 391.2C300 379 343 364 385.8 364C428.7 364 471.3 379 514.2 391C557 403 600 412 642.8 410.2C685.7 408.3 728.3 395.7 771.2 397.7C814 399.7 857 416.3 878.5 424.7L900 433L900 601L878.5 601C857 601 814 601 771.2 601C728.3 601 685.7 601 642.8 601C600 601 557 601 514.2 601C471.3 601 428.7 601 385.8 601C343 601 300 601 257.2 601C214.3 601 171.7 601 128.8 601C86 601 43 601 21.5 601L0 601Z" fill="#fa7268"></path><path d="M0 457L21.5 457.2C43 457.3 86 457.7 128.8 455.7C171.7 453.7 214.3 449.3 257.2 448.8C300 448.3 343 451.7 385.8 447.5C428.7 443.3 471.3 431.7 514.2 435.8C557 440 600 460 642.8 463.7C685.7 467.3 728.3 454.7 771.2 451.7C814 448.7 857 455.3 878.5 458.7L900 462L900 601L878.5 601C857 601 814 601 771.2 601C728.3 601 685.7 601 642.8 601C600 601 557 601 514.2 601C471.3 601 428.7 601 385.8 601C343 601 300 601 257.2 601C214.3 601 171.7 601 128.8 601C86 601 43 601 21.5 601L0 601Z" fill="#ef5f67"></path><path d="M0 493L21.5 491C43 489 86 485 128.8 475.8C171.7 466.7 214.3 452.3 257.2 448.2C300 444 343 450 385.8 452.8C428.7 455.7 471.3 455.3 514.2 461.5C557 467.7 600 480.3 642.8 489.5C685.7 498.7 728.3 504.3 771.2 505.8C814 507.3 857 504.7 878.5 503.3L900 502L900 601L878.5 601C857 601 814 601 771.2 601C728.3 601 685.7 601 642.8 601C600 601 557 601 514.2 601C471.3 601 428.7 601 385.8 601C343 601 300 601 257.2 601C214.3 601 171.7 601 128.8 601C86 601 43 601 21.5 601L0 601Z" fill="#e34c67"></path><path d="M0 505L21.5 501C43 497 86 489 128.8 493.7C171.7 498.3 214.3 515.7 257.2 523C300 530.3 343 527.7 385.8 519.3C428.7 511 471.3 497 514.2 496C557 495 600 507 642.8 512C685.7 517 728.3 515 771.2 512.8C814 510.7 857 508.3 878.5 507.2L900 506L900 601L878.5 601C857 601 814 601 771.2 601C728.3 601 685.7 601 642.8 601C600 601 557 601 514.2 601C471.3 601 428.7 601 385.8 601C343 601 300 601 257.2 601C214.3 601 171.7 601 128.8 601C86 601 43 601 21.5 601L0 601Z" fill="#d53867"></path><path d="M0 544L21.5 547.5C43 551 86 558 128.8 558C171.7 558 214.3 551 257.2 550.8C300 550.7 343 557.3 385.8 555.2C428.7 553 471.3 542 514.2 543.2C557 544.3 600 557.7 642.8 562.7C685.7 567.7 728.3 564.3 771.2 558.7C814 553 857 545 878.5 541L900 537L900 601L878.5 601C857 601 814 601 771.2 601C728.3 601 685.7 601 642.8 601C600 601 557 601 514.2 601C471.3 601 428.7 601 385.8 601C343 601 300 601 257.2 601C214.3 601 171.7 601 128.8 601C86 601 43 601 21.5 601L0 601Z" fill="#c62368"></path></svg>