<svg id="visual" viewBox="0 0 900 600" width="900" height="600" xmlns="http://www.w3.org/2000/svg" xmlns:xlink="http://www.w3.org/1999/xlink" version="1.1"><g stroke-width="1" stroke-linejoin="bevel"><path d="M393 319L302 303L360 377Z" fill="#003550" stroke="#003550"></path><path d="M302 303L271 382L360 377Z" fill="#003550" stroke="#003550"></path><path d="M302 303L216 292L271 382Z" fill="#00273a" stroke="#00273a"></path><path d="M393 319L409 201L302 303Z" fill="#002437" stroke="#002437"></path><path d="M302 303L279 176L216 292Z" fill="#003049" stroke="#003049"></path><path d="M409 201L279 176L302 303Z" fill="#00293e" stroke="#00293e"></path><path d="M271 382L329 497L360 377Z" fill="#003853" stroke="#003853"></path><path d="M360 377L508 422L393 319Z" fill="#002233" stroke="#002233"></path><path d="M201 474L329 497L271 382Z" fill="#002c41" stroke="#002c41"></path><path d="M216 292L178 371L271 382Z" fill="#003a57" stroke="#003a57"></path><path d="M403 529L508 422L360 377Z" fill="#00293e" stroke="#00293e"></path><path d="M393 319L499 210L409 201Z" fill="#00293e" stroke="#00293e"></path><path d="M508 422L537 339L393 319Z" fill="#002e45" stroke="#002e45"></path><path d="M537 339L499 210L393 319Z" fill="#002437" stroke="#002437"></path><path d="M409 201L328 132L279 176Z" fill="#003550" stroke="#003550"></path><path d="M328 132L233 166L279 176Z" fill="#002437" stroke="#002437"></path><path d="M279 176L233 166L216 292Z" fill="#003a57" stroke="#003a57"></path><path d="M216 292L70 274L178 371Z" fill="#003049" stroke="#003049"></path><path d="M384 107L328 132L409 201Z" fill="#002233" stroke="#002233"></path><path d="M178 371L201 474L271 382Z" fill="#00334c" stroke="#00334c"></path><path d="M308 600L403 529L329 497Z" fill="#00273a" stroke="#00273a"></path><path d="M329 497L403 529L360 377Z" fill="#003049" stroke="#003049"></path><path d="M499 210L384 107L409 201Z" fill="#002437" stroke="#002437"></path><path d="M328 132L179 98L233 166Z" fill="#002437" stroke="#002437"></path><path d="M233 166L116 227L216 292Z" fill="#002233" stroke="#002233"></path><path d="M178 371L132 495L201 474Z" fill="#003550" stroke="#003550"></path><path d="M403 529L524 508L508 422Z" fill="#003a57" stroke="#003a57"></path><path d="M610 388L598 337L537 339Z" fill="#002437" stroke="#002437"></path><path d="M610 388L537 339L508 422Z" fill="#002e45" stroke="#002e45"></path><path d="M537 339L594 216L499 210Z" fill="#002437" stroke="#002437"></path><path d="M71 378L132 495L178 371Z" fill="#002e45" stroke="#002e45"></path><path d="M218 600L308 600L329 497Z" fill="#003550" stroke="#003550"></path><path d="M639 465L610 388L508 422Z" fill="#002e45" stroke="#002e45"></path><path d="M218 600L329 497L201 474Z" fill="#002c41" stroke="#002c41"></path><path d="M403 529L436 600L524 508Z" fill="#003550" stroke="#003550"></path><path d="M598 337L594 216L537 339Z" fill="#002233" stroke="#002233"></path><path d="M499 210L539 65L384 107Z" fill="#00293e" stroke="#00293e"></path><path d="M667 269L594 216L598 337Z" fill="#002e45" stroke="#002e45"></path><path d="M70 274L71 378L178 371Z" fill="#002233" stroke="#002233"></path><path d="M116 227L70 274L216 292Z" fill="#002c41" stroke="#002c41"></path><path d="M292 0L179 98L328 132Z" fill="#003550" stroke="#003550"></path><path d="M233 166L179 98L116 227Z" fill="#00334c" stroke="#00334c"></path><path d="M116 227L0 176L70 274Z" fill="#00293e" stroke="#00293e"></path><path d="M308 600L436 600L403 529Z" fill="#003a57" stroke="#003a57"></path><path d="M132 495L218 600L201 474Z" fill="#00273a" stroke="#00273a"></path><path d="M593 600L639 465L524 508Z" fill="#00273a" stroke="#00273a"></path><path d="M524 508L639 465L508 422Z" fill="#002437" stroke="#002437"></path><path d="M699 402L667 269L598 337Z" fill="#002437" stroke="#002437"></path><path d="M436 600L528 600L524 508Z" fill="#002c41" stroke="#002c41"></path><path d="M699 402L598 337L610 388Z" fill="#00293e" stroke="#00293e"></path><path d="M638 103L539 65L594 216Z" fill="#003853" stroke="#003853"></path><path d="M594 216L539 65L499 210Z" fill="#00293e" stroke="#00293e"></path><path d="M384 107L363 0L328 132Z" fill="#003550" stroke="#003550"></path><path d="M472 0L363 0L384 107Z" fill="#003049" stroke="#003049"></path><path d="M363 0L292 0L328 132Z" fill="#003550" stroke="#003550"></path><path d="M71 378L0 521L132 495Z" fill="#00293e" stroke="#00293e"></path><path d="M132 495L108 600L218 600Z" fill="#002233" stroke="#002233"></path><path d="M70 274L0 338L71 378Z" fill="#002233" stroke="#002233"></path><path d="M0 176L0 338L70 274Z" fill="#002233" stroke="#002233"></path><path d="M189 0L88 93L179 98Z" fill="#003853" stroke="#003853"></path><path d="M179 98L88 93L116 227Z" fill="#002437" stroke="#002437"></path><path d="M0 338L0 397L71 378Z" fill="#00273a" stroke="#00273a"></path><path d="M539 65L472 0L384 107Z" fill="#003853" stroke="#003853"></path><path d="M0 521L108 600L132 495Z" fill="#00334c" stroke="#00334c"></path><path d="M639 465L699 402L610 388Z" fill="#003a57" stroke="#003a57"></path><path d="M735 468L699 402L639 465Z" fill="#00334c" stroke="#00334c"></path><path d="M292 0L189 0L179 98Z" fill="#00334c" stroke="#00334c"></path><path d="M528 600L593 600L524 508Z" fill="#002437" stroke="#002437"></path><path d="M666 125L638 103L594 216Z" fill="#003853" stroke="#003853"></path><path d="M539 65L625 0L472 0Z" fill="#002437" stroke="#002437"></path><path d="M696 191L594 216L667 269Z" fill="#00334c" stroke="#00334c"></path><path d="M88 93L0 176L116 227Z" fill="#00273a" stroke="#00273a"></path><path d="M810 320L696 191L667 269Z" fill="#002437" stroke="#002437"></path><path d="M696 191L666 125L594 216Z" fill="#00334c" stroke="#00334c"></path><path d="M0 397L0 521L71 378Z" fill="#003853" stroke="#003853"></path><path d="M711 600L735 468L639 465Z" fill="#003a57" stroke="#003a57"></path><path d="M699 402L810 320L667 269Z" fill="#002437" stroke="#002437"></path><path d="M88 93L0 81L0 176Z" fill="#003a57" stroke="#003a57"></path><path d="M65 0L0 81L88 93Z" fill="#002e45" stroke="#002e45"></path><path d="M189 0L65 0L88 93Z" fill="#00334c" stroke="#00334c"></path><path d="M716 0L638 103L666 125Z" fill="#00273a" stroke="#00273a"></path><path d="M716 0L625 0L638 103Z" fill="#002e45" stroke="#002e45"></path><path d="M638 103L625 0L539 65Z" fill="#002233" stroke="#002233"></path><path d="M0 521L0 600L108 600Z" fill="#002c41" stroke="#002c41"></path><path d="M735 468L776 407L699 402Z" fill="#003a57" stroke="#003a57"></path><path d="M593 600L711 600L639 465Z" fill="#003a57" stroke="#003a57"></path><path d="M735 468L795 483L776 407Z" fill="#00273a" stroke="#00273a"></path><path d="M900 319L810 320L900 361Z" fill="#003a57" stroke="#003a57"></path><path d="M776 407L810 320L699 402Z" fill="#003550" stroke="#003550"></path><path d="M696 191L784 115L666 125Z" fill="#00334c" stroke="#00334c"></path><path d="M711 600L795 483L735 468Z" fill="#002233" stroke="#002233"></path><path d="M65 0L0 0L0 81Z" fill="#002437" stroke="#002437"></path><path d="M828 169L784 115L696 191Z" fill="#002c41" stroke="#002c41"></path><path d="M784 115L716 0L666 125Z" fill="#002233" stroke="#002233"></path><path d="M810 320L828 169L696 191Z" fill="#002e45" stroke="#002e45"></path><path d="M784 115L760 0L716 0Z" fill="#002e45" stroke="#002e45"></path><path d="M900 209L828 169L810 320Z" fill="#00273a" stroke="#00273a"></path><path d="M900 0L760 0L784 115Z" fill="#00334c" stroke="#00334c"></path><path d="M711 600L817 600L795 483Z" fill="#003049" stroke="#003049"></path><path d="M900 361L810 320L776 407Z" fill="#00293e" stroke="#00293e"></path><path d="M900 361L776 407L795 483Z" fill="#003049" stroke="#003049"></path><path d="M828 169L900 118L784 115Z" fill="#002437" stroke="#002437"></path><path d="M900 523L900 361L795 483Z" fill="#003853" stroke="#003853"></path><path d="M900 319L900 209L810 320Z" fill="#002437" stroke="#002437"></path><path d="M817 600L900 523L795 483Z" fill="#003550" stroke="#003550"></path><path d="M900 209L900 118L828 169Z" fill="#002e45" stroke="#002e45"></path><path d="M817 600L900 600L900 523Z" fill="#00273a" stroke="#00273a"></path><path d="M900 118L900 0L784 115Z" fill="#002233" stroke="#002233"></path></g></svg>